<?xml version="1.0" encoding="UTF-8"?>
<svg width="32" height="32" viewBox="0 0 32 32" fill="none" xmlns="http://www.w3.org/2000/svg">
  <path d="M16 0C7.163 0 0 7.163 0 16C0 24.837 7.163 32 16 32C24.837 32 32 24.837 32 16C32 7.163 24.837 0 16 0Z" fill="#007396"/>
  <path d="M22.5 20.5C22.5 20.5 23.5 19.5 24 18.5C24.5 17.5 25 16 25 16C25 16 26 16.5 26.5 17.5C27 18.5 27.5 19.5 27.5 19.5C27.5 19.5 26.5 20.5 25.5 21C24.5 21.5 23.5 21.5 22.5 20.5Z" fill="#FC801D"/>
  <path d="M9.5 20.5C9.5 20.5 8.5 19.5 8 18.5C7.5 17.5 7 16 7 16C7 16 6 16.5 5.5 17.5C5 18.5 4.5 19.5 4.5 19.5C4.5 19.5 5.5 20.5 6.5 21C7.5 21.5 8.5 21.5 9.5 20.5Z" fill="#FC801D"/>
  <path d="M16 4C16 4 14 5 13 6C12 7 11 8 11 8C11 8 10 7.5 9 7C8 6.5 7 6.5 7 6.5C7 6.5 8 7.5 9 8.5C10 9.5 11 10 12 10C13 11 14 12 14 12C14 12 15 11.5 16 11C17 10.5 18 10.5 18 10.5C18 10.5 17 9.5 16 8.5C15 7.5 14 6.5 14 6.5C14 6.5 15 5.5 16 4.5C17 3.5 18 3 18 3C18 3 17 3.5 16 4Z" fill="#FC801D"/>
  <path d="M16 28C16 28 14 27 13 26C12 25 11 24 11 24C11 24 10 24.5 9 25C8 25.5 7 25.5 7 25.5C7 25.5 8 24.5 9 23.5C10 22.5 11 22 12 22C13 21 14 20 14 20C14 20 15 20.5 16 21C17 21.5 18 21.5 18 21.5C18 21.5 17 22.5 16 23.5C15 24.5 14 25.5 14 25.5C14 25.5 15 26.5 16 27.5C17 28.5 18 29 18 29C18 29 17 28.5 16 28Z" fill="#FC801D"/>
  <path d="M16 16C16 16 15 17 14 18C13 19 12 20 12 20C12 20 11 19.5 10 19C9 18.5 8 18.5 8 18.5C8 18.5 9 17.5 10 16.5C11 15.5 12 15 13 15C14 14 15 13 15 13C15 13 16 13.5 17 14C18 14.5 19 14.5 19 14.5C19 14.5 18 15.5 17 16.5C16 17.5 15 18.5 15 18.5C15 18.5 16 17.5 17 16.5C18 15.5 19 15 19 15C19 15 18 15.5 17 16.5C16 17.5 16 16 16 16Z" fill="#FC801D"/>
</svg> 