<?xml version="1.0" encoding="UTF-8"?>
<svg width="32" height="32" viewBox="0 0 32 32" fill="none" xmlns="http://www.w3.org/2000/svg">
  <path d="M16 4C9.373 4 4 9.373 4 16C4 22.627 9.373 28 16 28C22.627 28 28 22.627 28 16C28 9.373 22.627 4 16 4Z" fill="#0052CC"/>
  <path d="M16 8C11.582 8 8 11.582 8 16C8 20.418 11.582 24 16 24C20.418 24 24 20.418 24 16C24 11.582 20.418 8 16 8Z" fill="white"/>
  <path d="M16 12L20 16L16 20L12 16L16 12Z" fill="#0052CC"/>
  <path d="M16 14L18 16L16 18L14 16L16 14Z" fill="white"/>
</svg> 