<?xml version="1.0" encoding="UTF-8"?>
<svg width="32" height="32" viewBox="0 0 32 32" fill="none" xmlns="http://www.w3.org/2000/svg">
  <path d="M15.885 0C10.106 0 9.35.778 9.35 2.6v2.8h5.6V6.2H6.2C2.778 6.2 0 8.978 0 12.4v7.2c0 3.422 2.778 6.2 6.2 6.2h2.8v-5.6c0-2.8 2.8-5.6 5.6-5.6h5.6c2.8 0 5.6-2.8 5.6-5.6V2.6C25.8.778 25.044 0 19.265 0h-3.38zM12.55 1.8c.778 0 1.4.622 1.4 1.4 0 .778-.622 1.4-1.4 1.4-.778 0-1.4-.622-1.4-1.4 0-.778.622-1.4 1.4-1.4z" fill="#3776AB"/>
  <path d="M16.115 32c5.779 0 6.535-.778 6.535-2.6v-2.8h-5.6v-.8h8.75c3.422 0 6.2-2.778 6.2-6.2v-7.2c0-3.422-2.778-6.2-6.2-6.2h-2.8v5.6c0 2.8-2.8 5.6-5.6 5.6h-5.6c-2.8 0-5.6 2.8-5.6 5.6v5.6c0 1.822.756 2.6 6.535 2.6h3.38zM19.45 30.2c-.778 0-1.4-.622-1.4-1.4 0-.778.622-1.4 1.4-1.4.778 0 1.4.622 1.4 1.4 0 .778-.622 1.4-1.4 1.4z" fill="#FFD43B"/>
</svg> 