<?xml version="1.0" encoding="UTF-8"?>
<svg width="32" height="32" viewBox="0 0 32 32" fill="none" xmlns="http://www.w3.org/2000/svg">
  <circle cx="16" cy="16" r="14" stroke="#61DAFB" stroke-width="2"/>
  <circle cx="16" cy="16" r="4" fill="#61DAFB"/>
  <path d="M16 2C20.4183 2 24 5.58172 24 10C24 14.4183 20.4183 18 16 18C11.5817 18 8 14.4183 8 10C8 5.58172 11.5817 2 16 2Z" stroke="#61DAFB" stroke-width="2"/>
  <path d="M16 14C20.4183 14 24 17.5817 24 22C24 26.4183 20.4183 30 16 30C11.5817 30 8 26.4183 8 22C8 17.5817 11.5817 14 16 14Z" stroke="#61DAFB" stroke-width="2"/>
</svg> 