<?xml version="1.0" encoding="UTF-8"?>
<svg width="32" height="32" viewBox="0 0 32 32" fill="none" xmlns="http://www.w3.org/2000/svg">
  <path d="M16 0C7.163 0 0 7.163 0 16s7.163 16 16 16 16-7.163 16-16S24.837 0 16 0zm0 2.667c7.364 0 13.333 5.97 13.333 13.333S23.364 29.333 16 29.333 2.667 23.364 2.667 16 8.636 2.667 16 2.667z" fill="#6DB33F"/>
  <path d="M16 6.667c-5.147 0-9.333 4.186-9.333 9.333 0 5.147 4.186 9.333 9.333 9.333 5.147 0 9.333-4.186 9.333-9.333 0-5.147-4.186-9.333-9.333-9.333zm0 2.666c3.682 0 6.667 2.985 6.667 6.667 0 3.682-2.985 6.667-6.667 6.667-3.682 0-6.667-2.985-6.667-6.667 0-3.682 2.985-6.667 6.667-6.667z" fill="#6DB33F"/>
  <path d="M16 12c-2.21 0-4 1.79-4 4s1.79 4 4 4 4-1.79 4-4-1.79-4-4-4zm0 2.667c.736 0 1.333.597 1.333 1.333 0 .736-.597 1.333-1.333 1.333-.736 0-1.333-.597-1.333-1.333 0-.736.597-1.333 1.333-1.333z" fill="#6DB33F"/>
</svg> 